<?xml version="1.0" encoding="UTF-8"?>
<!DOCTYPE svg PUBLIC "-//W3C//DTD SVG 1.1//EN" "http://www.w3.org/Graphics/SVG/1.1/DTD/svg11.dtd">
<!-- Creator: CorelDRAW 2020 (64-Bit) -->
<svg xmlns="http://www.w3.org/2000/svg" xml:space="preserve" width="270px" height="447px" version="1.1" style="shape-rendering:geometricPrecision; text-rendering:geometricPrecision; image-rendering:optimizeQuality; fill-rule:evenodd; clip-rule:evenodd"
viewBox="0 0 2.53 4.19"
 xmlns:xlink="http://www.w3.org/1999/xlink"
 xmlns:xodm="http://www.corel.com/coreldraw/odm/2003">
 <defs>
  <style type="text/css">
   <![CDATA[
    .fil0 {fill:#2B3E4C}
   ]]>
  </style>
 </defs>
 <g id="Capa_x0020_1">
  <metadata id="CorelCorpID_0Corel-Layer"/>
  <g id="_2419868553168">
   <polygon class="fil0" points="1.38,0.75 1.38,0.75 1.38,0.75 1.38,0.75 1.38,0.75 1.38,0.75 1.38,0.75 1.38,0.75 1.38,0.75 "/>
   <path class="fil0" d="M1.2 0.96l0 0 0 -0.01c0,0 0,0 0,0l0 0c0,0 0,0 0,0l0 0c0,0 0,0 0,0l0 0c-0.01,0 -0.01,-0.01 -0.01,-0.01l0 0 0 0 0 0c0,0 0,0 0,0 -0.01,0 -0.01,0 -0.01,0l0 -0.01 0 0c0,0 -0.01,0 -0.01,-0.01l0 0c0,-0.15 0.01,-0.3 0.01,-0.46l0 0 0 0 0 0 0 -0.01 0 -0.03 0 0 0 0 0 0c0,-0.01 0,-0.01 0,-0.01l-0.01 0 0 0 0 0 0 0c0,0 0,-0.01 -0.01,-0.01l0 0 0 -0.01 0 0c-0.03,-0.05 -0.11,-0.15 -0.09,-0.17l0 0 0 0c0,0 0,0 0,0 0,0 0,0 0,0l0 0c0,0 0,0 0,0 0,0 0,0 0,0 0,-0.01 0,-0.01 0,-0.01l0 0c0,0 0,0 0,0 -0.01,0 -0.01,-0.05 -0.01,-0.05l0 0c0,0 0,-0.01 0,-0.01 0,0 0,0 0,0 0,0 0,0 0,0l0 0c0,0 0,0 0,0 0,0 0,0 0,0l0 0c0,0 0,0 0,0l-0.01 0c0,0 0,0 0,0 0,0 0,0 0,0l0 0c0,0 0,0 0,-0.01 -0.01,0 -0.01,0 -0.01,0 0,0 0,0 0,0l0 0c0,0 0,0 -0.01,0 0,0 0,0 0,0 0,0.01 0,0.01 0,0.01l0 0c-0.06,0.04 -0.08,-0.03 -0.09,-0.09 -0.02,-0.1 -0.11,-0.06 -0.15,0 -0.02,0.02 -0.04,0.04 -0.02,0.07 0,0 0,0 0,0 0,0 0,0 0,0.01 0.03,0.06 -0.02,0.08 -0.06,0.1 -0.04,0.01 -0.03,-0.08 -0.11,0.02 -0.01,0.02 -0.03,0.04 -0.06,0.04 -0.03,0 -0.03,-0.02 -0.01,0.04 0.02,0.06 0.02,0.15 -0.01,0.16 -0.09,0 -0.07,0.02 -0.07,0.14 0,0.04 0,0.09 0,0.09 0.01,0.03 0.05,0.1 0.02,0.11 -0.01,0.01 -0.01,0 -0.01,0.02 0.01,0.05 0.01,0.04 -0.02,0.08 -0.02,0.03 -0.04,0.02 -0.02,0.05 0.05,0.06 0.06,0.22 0.01,0.26 0,0 0,0 0,0 0,0.01 0,0.03 0,0.04 -0.01,0.02 -0.01,0.01 0,0.03 0.06,0.09 0.15,0.37 0.19,0.45 0,0 0.06,0.03 0.06,0.04 0.03,0.03 0.07,0 0.1,-0.02 0.02,-0.02 0.06,-0.02 0.06,0.01 0,0 0,0 0,0.01l0 0c0,0 0,0 0,0l0 0 0 0c0,0 0.01,0 0.01,0l0 0 0.18 0 0.25 0c0.01,-0.02 0.08,-0.01 0.11,0l0.01 0c-0.01,-0.01 0,-0.03 0,-0.04 0,-0.01 0,-0.01 0,-0.01 0.01,-0.06 -0.09,-0.23 -0.09,-0.3 0,0 0,0 0.01,-0.01 0,-0.01 -0.02,-0.11 -0.03,-0.14 0,0 0,0 0,0 0,-0.01 0.01,-0.03 -0.01,-0.03 0,0 0,0 0,0 -0.13,-0.02 -0.15,-0.2 -0.08,-0.32z"/>
   <path class="fil0" d="M0.07 3.73c-0.01,0.05 0.01,0 0.01,0.03l0 0c0,0.09 -0.05,0.08 -0.08,0.14 0,0 0,0 0,0.01 0.02,0.03 0.07,0.11 0.07,0.16 0.01,0.03 -0.01,0.02 -0.02,0.03l0 0c0,0.01 0.02,0.03 0.03,0.03l0 0c0,0 0,0 0,0l0 0.01c0,0 0,0 0,0 0,0 0,0 0,0l0 -0.01c0,0 0,0 0,0l0 0c0,0 0,0 0,0 0.02,-0.01 0.13,0.01 0.17,0 0,0 0,0 0,0l0 0c0.01,-0.01 0.01,0 0.03,0 0.05,0.02 0.14,0.07 0.18,0.05 0,0 0.01,0 0.01,0 0,0 0,0 0,0 0,-0.01 0.1,-0.1 0.1,-0.1 0.02,-0.02 0.03,-0.02 -0.02,-0.09l0 0c-0.02,-0.02 -0.05,-0.11 0,-0.12l0 0c0.02,0 0.02,0 0.05,-0.03 0.03,-0.05 0.15,-0.13 0.19,-0.1 0.01,0.01 0.02,0.01 0.04,0 0.02,-0.03 0.05,-0.05 0.06,-0.05 0,-0.01 0,-0.01 -0.01,-0.01 -0.01,0 -0.01,0.01 -0.02,0.01l0 -0.01c-0.01,0 -0.01,0 -0.01,0 -0.11,-0.11 -0.01,-0.19 -0.06,-0.26l0 0c-0.02,-0.02 -0.1,-0.13 -0.09,-0.16l0 0c0,0 0,0 0,0l0 0c0,0 0,0 0,0 0,-0.05 -0.03,-0.16 -0.03,-0.16 0,0 -0.08,-0.04 -0.02,-0.07 0,0 0,0 0,0 0,0 0,0 0,-0.01 0,-0.03 0.03,-0.04 -0.01,-0.04 -0.02,0.01 -0.02,-0.03 -0.01,-0.05 0,-0.01 -0.02,-0.02 -0.02,-0.02 -0.01,-0.04 0.01,-0.05 -0.02,-0.04 -0.04,-0.04 -0.1,0.01 -0.12,0 -0.01,-0.01 0,-0.02 -0.02,-0.04 -0.01,-0.01 -0.04,-0.01 -0.07,0 -0.01,0 -0.02,0.01 -0.03,0l0 0c-0.02,-0.01 -0.02,-0.01 -0.05,-0.02 0,0 0,0 0,0 0,0.01 0,0.01 0,0.01l0 0c0,0 -0.05,0.04 -0.05,0.05 0,0 0,0 0,0l0 0c0,0 0,0 0,0l0 0c0.01,0 0.01,0 0.01,0.01l0 0c0,0 0,0 0,0 0,0 0,0 0,0l0 0c0.02,-0.01 0.04,0.02 0.03,0.04 -0.01,0.04 -0.07,0.08 -0.09,0.05 -0.05,-0.06 -0.09,-0.04 -0.05,0.13 0.08,0.03 0.05,0.21 0,0.26 -0.06,0.06 -0.1,-0.03 -0.05,0.13 0,0 0.01,0.01 0.01,0.01 0.15,0.05 0.02,0.17 0,0.15l0 0c-0.03,-0.03 -0.03,-0.02 -0.04,0.01 0,0.03 0,0.04 0,0.07z"/>
   <path class="fil0" d="M1.69 2.93l0 0c0,0 0.01,0 0.01,0 -0.01,-0.02 -0.01,-0.04 0.01,-0.05 0,0 0,0 0,0 0.05,-0.02 0.1,-0.07 0.15,-0.06 0.01,0 0.03,0 0.03,-0.01 0.02,-0.02 0.06,-0.09 0.09,-0.09l0.02 -0.02 0 0c0,0 0,0 0,0l-0.02 -0.02 -0.02 -0.02 -0.07 -0.07 -0.02 -0.02 -0.08 -0.09 -0.08 -0.07 -0.05 0.05 -0.16 0.15c-0.01,0.01 -0.02,0.01 -0.03,0l-0.04 -0.05 -0.2 0.19 0.12 0.12c0,0 0,0.01 0,0.01 0,0.01 0,0.01 0,0.02l-0.21 0.19c-0.01,0.01 -0.02,0.01 -0.03,0l-0.09 -0.1 -0.13 0.12 -0.04 0.04 -0.01 0.02c-0.01,0 -0.02,0 -0.03,-0.01l-0.02 -0.01 -0.01 0.01c-0.03,0.03 -0.06,-0.04 -0.07,0.02 0,0.04 0.01,0.11 0.03,0.13 0.03,0.04 0.09,0.12 0.08,0.14 0.01,0.03 -0.04,0.14 0.03,0.2l0 0c0,0 0,0 0,0l0.01 0.01 0 0c0.01,0.01 0.04,-0.01 0.06,0 0.07,0.01 0.04,0.03 0.1,0.01 0.06,-0.03 0.08,-0.03 0.17,-0.11 0,-0.01 0,0 0,-0.02 0.01,-0.04 0,-0.04 0,-0.08 0,0 0,0 0,0l0 0c0,-0.02 0.04,-0.05 0.05,-0.07 0.01,-0.01 0.02,-0.01 0,-0.03 -0.06,-0.08 0.04,-0.19 0.11,-0.22 0.03,-0.03 0.34,-0.21 0.34,-0.21z"/>
   <path class="fil0" d="M2.51 2.32c-0.06,-0.17 -0.02,-0.1 -0.1,-0.16 -0.03,-0.02 -0.07,-0.06 -0.1,-0.09 -0.07,-0.05 -0.06,-0.02 -0.04,0.02 0,0 0,0.02 0,0.02 0.01,0.01 -0.03,0 -0.06,0.01 -0.04,0.01 -0.08,-0.04 -0.11,-0.07l0 0c0,0 0,0 0,0l0 0c0,0 0,0 0,0 0,0 0,0 0,0l0 0c0,0 0,0 0,0 0,0 0,0 0,0l0 0 0 0c-0.03,0 -0.13,0.1 -0.16,0.13l0.14 0.14c0,0 0,0 0,0.01 0,0 0,0 0,0l-0.09 0.09 -0.12 0.12 0 0 0.01 0.01 0.03 0.03 0.07 0.07c0,0 0,0 0,0l0 0c0,-0.01 0,-0.01 0,-0.01 0,0 0.01,0 0.01,0 0.01,-0.02 0.08,-0.04 0.12,-0.07 0,-0.01 0,-0.01 0,-0.01 0,0 0,0 0,0 -0.04,-0.04 0.12,-0.13 0.18,-0.15 0.04,-0.02 0.01,-0.01 0.03,-0.03 0.04,-0.02 0.15,-0.01 0.18,-0.01 0.05,0.01 0.02,-0.02 0.01,-0.05z"/>
   <path class="fil0" d="M1.94 1.95l0 0c-0.01,0.05 -0.11,0.12 -0.17,0.13 -0.04,0.01 -0.02,-0.02 -0.06,0 -0.03,0.01 -0.13,0.11 -0.16,0.14l0.12 0.12 0.05 0.05 0.08 0.08c0,0 0,0 0,0l0.05 0.05 0.13 -0.12 0.08 -0.07 -0.14 -0.14c0,-0.01 0,-0.01 0,-0.01 0,0 0,-0.01 0,-0.01l0.07 -0.07c0.03,-0.03 0.09,-0.07 0.11,-0.07 0.01,0 0.01,0 0.01,0 0,0 0,0 0,0 0.05,0.03 0.07,0.07 0.09,0.06 0.01,0 0.02,0 0.03,0 0.02,0.01 0.03,0.01 0.01,-0.01 -0.02,-0.02 0.01,-0.05 0.01,-0.06 0,0 0,0 0,0l0 0 0 0c0,0 0,0 0,0 0,0 0,0 0,0l0 0c0,0 0,0 0,0 0,0 0,0 0,0l0 0c-0.02,0 -0.1,-0.11 -0.15,-0.12 -0.01,0 -0.02,-0.01 -0.02,-0.01 -0.02,-0.01 -0.01,-0.02 -0.03,-0.02 -0.02,-0.01 -0.04,0 -0.06,0.01 -0.02,0.02 -0.04,0.05 -0.05,0.07z"/>
   <path class="fil0" d="M1.2 0.45l0 0c0,0 0,0 0.01,0 0,0.01 0.01,0.01 0.02,0.02 0.01,0.01 0.01,0.01 0.02,0.02l0 0c0,0 0,0 0,0l0 0c0.01,0.01 0.01,0.02 0.02,0.02 0.02,0.03 0.04,0.06 0.07,0.08 0,0 0,0 0.01,0l0 0c0,0.01 0,0.01 0,0.01l0 0c0,0 0,0 0,0 0.02,0 0.02,0 0.02,0.01l0 0 0 0c0,0 0,0 0,0 -0.01,0.01 -0.02,0.02 -0.02,0.04l0 0c0,0.04 0.01,0.07 0.03,0.1l0 0 0 0 0 0 0 0 0 0 0 0c0,0 0,0 0,0 0,0 0.01,0.02 0.02,0.02l0 0 0 0 0 0c0.11,0.13 0.31,0.06 0.31,0.07 0.04,0.02 0.11,0.05 0.15,0.07 0,0 0,0 0,0l0 0.01 0 0c0,0 0,0 0,0l0 0c-0.04,0.1 0.14,0.15 0.18,0.11 0,0 0.01,0 0.01,-0.01l0 0c0,0 0,0 0,0l0 0c0.02,0 0.04,0.03 0.04,0.05 0,0 0.22,0.14 0.27,0.12 0.01,0 0.02,0 0.03,0.01 0,0 0.01,0 0.01,0l-0.01 0.9c0,0 0,0 0,0l0 0c0,0 0,0 0,0 -0.01,-0.01 -0.12,-0.08 -0.12,-0.08l0 0c0,0 0,0 0,0 0,0 0,0 0,0 -0.02,-0.01 -0.12,-0.12 -0.16,-0.14 -0.06,-0.02 -0.02,-0.04 -0.11,-0.02 -0.03,0 -0.07,0.07 -0.09,0.1 -0.03,0.06 -0.13,0.09 -0.15,0.1 -0.01,0.01 -0.01,0 -0.01,0 -0.01,-0.02 -0.05,-0.01 -0.06,0 -0.02,-0.02 -0.03,-0.02 -0.04,-0.03 -0.01,-0.01 -0.01,-0.02 -0.01,-0.03 0,-0.03 -0.02,-0.04 -0.07,-0.04 -0.03,-0.01 -0.1,-0.08 -0.12,-0.1 -0.01,0 -0.01,0 -0.01,0 -0.04,-0.02 -0.02,-0.1 -0.02,-0.1 0,-0.09 -0.08,-0.25 -0.09,-0.3 0.01,-0.03 -0.02,-0.18 -0.03,-0.19 0,-0.01 0,0 0,-0.01l0 0c-0.18,-0.02 -0.11,-0.26 -0.1,-0.28l0 0c0,0 0,0 0,0 0.01,0 0.01,0 0.01,0l0 0c0,0 0,0 0,0l0 0c0.01,-0.02 0.01,-0.03 0,-0.05l-0.02 -0.01c0.01,-0.15 0.01,-0.3 0.01,-0.45 0,-0.01 0,-0.02 0,-0.02l0 0z"/>
   <path class="fil0" d="M1.49 2.6l0.15 -0.15 0.06 -0.05 -0.05 -0.05 -0.12 -0.12c0,0 0,-0.01 0,-0.01l0.15 -0.15c0,0 0,0 0,0l0 0c0,0 0,0 0,0 0,0 -0.01,0 -0.01,0l0 0 0 0c0,0 -0.02,-0.01 -0.03,-0.03 -0.02,-0.02 -0.01,-0.02 -0.02,-0.04 0,-0.02 -0.02,-0.03 -0.05,-0.02 -0.05,-0.02 -0.13,-0.1 -0.13,-0.1l0 0c0,0 0,0 0,0l-0.01 0c0,0 0,0 0,0l0 0c-0.02,0 -0.01,-0.04 -0.03,-0.05 -0.03,-0.01 -0.11,-0.02 -0.1,0.01l-0.27 -0.01 -0.19 0c0,0 0,0 0,0 -0.01,0.01 -0.03,-0.04 -0.04,-0.03 0,0 0,0 0,0l0 0c0,0 0,0 0,0 -0.02,0.03 -0.12,0.08 -0.14,0.02l0 0c0,0 0,0 0,0l0 0c0,0 0,0 0,0 0,0 0,0 0,0 -0.01,0 -0.05,-0.02 -0.06,-0.03 -0.01,-0.02 -0.02,-0.04 -0.03,-0.06 0,0 0,0 0,0l0 0.01c0,0.03 0.02,0.17 0.02,0.19l0 0c0,0 0,0 0,0 0,0 0,0 0,0 0,0 0,0 0,0 0.01,0 0.03,0.03 0.03,0.03 0.02,0.03 0.06,0.02 0.06,0.05 0.02,0.04 -0.03,0.16 -0.04,0.19l0 0c0,0 0,0 0,0 0,0 0,0.01 0,0.01l0 0c0,0 -0.01,0.01 -0.01,0.01l0 0c-0.01,0 -0.01,0 -0.01,0 0,0 0,0 0,0l0 0c-0.01,0 -0.01,0 -0.02,0 0,0 0,0 0,0l0 0c-0.01,0 -0.01,0 -0.01,0 0,0 0,0 0,0l0 0c0,0 -0.01,0 -0.01,0l0 0c0,0 0,0 0,0 0,0 -0.06,0.01 -0.12,0.04l0 0c0,0.01 -0.14,0.1 -0.16,0.1l0 0c0,0 0,0 0,0 0,0 0,0.01 0,0.01l0 0c0,0 0,0 0,0 0,0 0,0 0,0l0 0c0,0.03 0.03,0.07 0.03,0.09l0 0c0,0.03 0.03,0.22 -0.01,0.27 -0.02,0.03 -0.03,0 -0.02,0.06l0 0 0 0c0,0 0,0 0,0 0.02,-0.01 0.05,0.01 0.07,0.02 0,0 0,0 0,0l0 0c0.03,-0.01 0.07,-0.03 0.09,0 0.01,0.01 0.01,0.03 0.04,0.03 0.03,0.01 0.08,-0.02 0.1,0.01 0,0 0,0 0,0l0 0 0 0 0 0c0.01,-0.01 0.02,-0.01 0.02,0 0.01,0 0,0.04 0.01,0.05l0 0c0.01,0 0.01,0.01 0.01,0.03 0,0 -0.01,0.05 0.02,0.04l0 0c0.02,-0.01 0.02,0 0.01,0.02l0 0c0,0.01 0,0.01 0,0.02 0,0 0,0 0,0l0 0 0 0c0,0.01 0.01,0.02 0.01,0.03 -0.04,0.01 -0.06,0.03 0,0.04l0 0c0,0 0,0 0,0 0,0.01 0.01,0.03 0.01,0.04 0,0.02 0.01,0.02 0.02,0.01 0.02,0 0.04,-0.01 0.06,0.02l0.02 -0.02c0,-0.01 0.01,-0.01 0.01,0l0.03 0.02 0.05 -0.05 0.13 -0.13c0,0 0.01,0 0.01,0l0.11 0.11 0.05 -0.05 0.16 -0.15 -0.12 -0.12c-0.01,0 -0.01,0 -0.01,-0.01 0,0 0,0 0.01,0l0.08 -0.09 0.12 -0.12c0.01,0 0.01,0 0.02,0l0.05 0.06z"/>
  </g>
 </g>
</svg>
